name C:\Users\u0101727\Documents\MyRepositories\upper-imu-dc\OpenSim\subject0\MA\MA_Splines\angle_in_n6_dof6_1.mot
datacolumns 7
datarows 74
range 150.01000000 150.74000000
endheader 
time	clav_prot	clav_elev	scapula_abduction	scapula_elevation	scapula_upward_rot	scapula_winging	
        150.01000000	        -49.02793530	         11.96046367	        -17.92766020	          1.12405674	         85.49388449	        -12.12692714	
        150.02000000	        -42.60353533	         11.96046367	        -17.92766020	          1.12405674	         85.49388449	        -12.12692714	
        150.03000000	        -36.17913537	         11.96046367	        -17.92766020	          1.12405674	         85.49388449	        -12.12692714	
        150.04000000	        -29.75473540	         11.96046367	        -17.92766020	          1.12405674	         85.49388449	        -12.12692714	
        150.05000000	        -23.33033544	         11.96046367	        -17.92766020	          1.12405674	         85.49388449	        -12.12692714	
        150.06000000	        -16.90593547	         11.96046367	        -17.92766020	          1.12405674	         85.49388449	        -12.12692714	
        150.07000000	        -49.02793530	         16.86370047	        -17.92766020	          1.12405674	         85.49388449	        -12.12692714	
        150.08000000	        -42.60353533	         16.86370047	        -17.92766020	          1.12405674	         85.49388449	        -12.12692714	
        150.09000000	        -36.17913537	         16.86370047	        -17.92766020	          1.12405674	         85.49388449	        -12.12692714	
        150.10000000	        -29.75473540	         16.86370047	        -17.92766020	          1.12405674	         85.49388449	        -12.12692714	
        150.11000000	        -23.33033544	         16.86370047	        -17.92766020	          1.12405674	         85.49388449	        -12.12692714	
        150.12000000	        -16.90593547	         16.86370047	        -17.92766020	          1.12405674	         85.49388449	        -12.12692714	
        150.13000000	        -49.02793530	         -7.65248351	         -8.18913718	          1.12405674	         85.49388449	        -12.12692714	
        150.14000000	        -42.60353533	         -7.65248351	         -8.18913718	          1.12405674	         85.49388449	        -12.12692714	
        150.15000000	        -36.17913537	         -7.65248351	         -8.18913718	          1.12405674	         85.49388449	        -12.12692714	
        150.16000000	        -29.75473540	         -7.65248351	         -8.18913718	          1.12405674	         85.49388449	        -12.12692714	
        150.17000000	        -23.33033544	         -7.65248351	         -8.18913718	          1.12405674	         85.49388449	        -12.12692714	
        150.18000000	        -16.90593547	         -7.65248351	         -8.18913718	          1.12405674	         85.49388449	        -12.12692714	
        150.19000000	        -49.02793530	         -2.74924671	         -8.18913718	          1.12405674	         85.49388449	        -12.12692714	
        150.20000000	        -42.60353533	         -2.74924671	         -8.18913718	          1.12405674	         85.49388449	        -12.12692714	
        150.21000000	        -36.17913537	         -2.74924671	         -8.18913718	          1.12405674	         85.49388449	        -12.12692714	
        150.22000000	        -29.75473540	         -2.74924671	         -8.18913718	          1.12405674	         85.49388449	        -12.12692714	
        150.23000000	        -23.33033544	         -2.74924671	         -8.18913718	          1.12405674	         85.49388449	        -12.12692714	
        150.24000000	        -16.90593547	         -2.74924671	         -8.18913718	          1.12405674	         85.49388449	        -12.12692714	
        150.25000000	        -49.02793530	          2.15399008	         -8.18913718	          1.12405674	         85.49388449	        -12.12692714	
        150.26000000	        -42.60353533	          2.15399008	         -8.18913718	          1.12405674	         85.49388449	        -12.12692714	
        150.27000000	        -36.17913537	          2.15399008	         -8.18913718	          1.12405674	         85.49388449	        -12.12692714	
        150.28000000	        -29.75473540	          2.15399008	         -8.18913718	          1.12405674	         85.49388449	        -12.12692714	
        150.29000000	        -23.33033544	          2.15399008	         -8.18913718	          1.12405674	         85.49388449	        -12.12692714	
        150.30000000	        -16.90593547	          2.15399008	         -8.18913718	          1.12405674	         85.49388449	        -12.12692714	
        150.31000000	        -49.02793530	          7.05722688	         -8.18913718	          1.12405674	         85.49388449	        -12.12692714	
        150.32000000	        -42.60353533	          7.05722688	         -8.18913718	          1.12405674	         85.49388449	        -12.12692714	
        150.33000000	        -36.17913537	          7.05722688	         -8.18913718	          1.12405674	         85.49388449	        -12.12692714	
        150.34000000	        -29.75473540	          7.05722688	         -8.18913718	          1.12405674	         85.49388449	        -12.12692714	
        150.35000000	        -23.33033544	          7.05722688	         -8.18913718	          1.12405674	         85.49388449	        -12.12692714	
        150.36000000	        -16.90593547	          7.05722688	         -8.18913718	          1.12405674	         85.49388449	        -12.12692714	
        150.37000000	        -49.02793530	         11.96046367	         -8.18913718	          1.12405674	         85.49388449	        -12.12692714	
        150.38000000	        -42.60353533	         11.96046367	         -8.18913718	          1.12405674	         85.49388449	        -12.12692714	
        150.39000000	        -36.17913537	         11.96046367	         -8.18913718	          1.12405674	         85.49388449	        -12.12692714	
        150.40000000	        -29.75473540	         11.96046367	         -8.18913718	          1.12405674	         85.49388449	        -12.12692714	
        150.41000000	        -23.33033544	         11.96046367	         -8.18913718	          1.12405674	         85.49388449	        -12.12692714	
        150.42000000	        -16.90593547	         11.96046367	         -8.18913718	          1.12405674	         85.49388449	        -12.12692714	
        150.43000000	        -49.02793530	         16.86370047	         -8.18913718	          1.12405674	         85.49388449	        -12.12692714	
        150.44000000	        -42.60353533	         16.86370047	         -8.18913718	          1.12405674	         85.49388449	        -12.12692714	
        150.45000000	        -36.17913537	         16.86370047	         -8.18913718	          1.12405674	         85.49388449	        -12.12692714	
        150.46000000	        -29.75473540	         16.86370047	         -8.18913718	          1.12405674	         85.49388449	        -12.12692714	
        150.47000000	        -23.33033544	         16.86370047	         -8.18913718	          1.12405674	         85.49388449	        -12.12692714	
        150.48000000	        -16.90593547	         16.86370047	         -8.18913718	          1.12405674	         85.49388449	        -12.12692714	
        150.49000000	        -49.02793530	         -7.65248351	          1.54938583	          1.12405674	         85.49388449	        -12.12692714	
        150.50000000	        -42.60353533	         -7.65248351	          1.54938583	          1.12405674	         85.49388449	        -12.12692714	
        150.51000000	        -36.17913537	         -7.65248351	          1.54938583	          1.12405674	         85.49388449	        -12.12692714	
        150.52000000	        -29.75473540	         -7.65248351	          1.54938583	          1.12405674	         85.49388449	        -12.12692714	
        150.53000000	        -23.33033544	         -7.65248351	          1.54938583	          1.12405674	         85.49388449	        -12.12692714	
        150.54000000	        -16.90593547	         -7.65248351	          1.54938583	          1.12405674	         85.49388449	        -12.12692714	
        150.55000000	        -49.02793530	         -2.74924671	          1.54938583	          1.12405674	         85.49388449	        -12.12692714	
        150.56000000	        -42.60353533	         -2.74924671	          1.54938583	          1.12405674	         85.49388449	        -12.12692714	
        150.57000000	        -36.17913537	         -2.74924671	          1.54938583	          1.12405674	         85.49388449	        -12.12692714	
        150.58000000	        -29.75473540	         -2.74924671	          1.54938583	          1.12405674	         85.49388449	        -12.12692714	
        150.59000000	        -23.33033544	         -2.74924671	          1.54938583	          1.12405674	         85.49388449	        -12.12692714	
        150.60000000	        -16.90593547	         -2.74924671	          1.54938583	          1.12405674	         85.49388449	        -12.12692714	
        150.61000000	        -49.02793530	          2.15399008	          1.54938583	          1.12405674	         85.49388449	        -12.12692714	
        150.62000000	        -42.60353533	          2.15399008	          1.54938583	          1.12405674	         85.49388449	        -12.12692714	
        150.63000000	        -36.17913537	          2.15399008	          1.54938583	          1.12405674	         85.49388449	        -12.12692714	
        150.64000000	        -29.75473540	          2.15399008	          1.54938583	          1.12405674	         85.49388449	        -12.12692714	
        150.65000000	        -23.33033544	          2.15399008	          1.54938583	          1.12405674	         85.49388449	        -12.12692714	
        150.66000000	        -16.90593547	          2.15399008	          1.54938583	          1.12405674	         85.49388449	        -12.12692714	
        150.67000000	        -49.02793530	          7.05722688	          1.54938583	          1.12405674	         85.49388449	        -12.12692714	
        150.68000000	        -42.60353533	          7.05722688	          1.54938583	          1.12405674	         85.49388449	        -12.12692714	
        150.69000000	        -36.17913537	          7.05722688	          1.54938583	          1.12405674	         85.49388449	        -12.12692714	
        150.70000000	        -29.75473540	          7.05722688	          1.54938583	          1.12405674	         85.49388449	        -12.12692714	
        150.71000000	        -23.33033544	          7.05722688	          1.54938583	          1.12405674	         85.49388449	        -12.12692714	
        150.72000000	        -16.90593547	          7.05722688	          1.54938583	          1.12405674	         85.49388449	        -12.12692714	
        150.73000000	        -49.02793530	         11.96046367	          1.54938583	          1.12405674	         85.49388449	        -12.12692714	
        150.74000000	        -42.60353533	         11.96046367	          1.54938583	          1.12405674	         85.49388449	        -12.12692714	
